<?xml version="1.0" encoding="utf-8"?>
<!-- Generator: Adobe Illustrator 25.3.1, SVG Export Plug-In . SVG Version: 6.00 Build 0)  -->
<svg version="1.1" id="Layer_1" xmlns="http://www.w3.org/2000/svg" xmlns:xlink="http://www.w3.org/1999/xlink" x="0px" y="0px"
	 viewBox="0 0 612 612" style="enable-background:new 0 0 612 612;" xml:space="preserve">
<style type="text/css">
	.st0{fill:#EC1C24;}
</style>
<g>
	<path class="st0" d="M120.71,467.57H62.04V144.43h58.67V467.57z"/>
	<path class="st0" d="M443.41,467.57h-62.56L355.4,399.4H240.64l-25.02,68.16h-62.56l117.78-323.13h54.79L443.41,467.57z
		 M298.02,241.07l-36.24,99.66h72.48L298.02,241.07z"/>
	<path class="st0" d="M549.96,430.46c0,10.35-3.53,19.13-10.57,26.32c-7.05,7.19-15.9,10.79-26.53,10.79
		c-10.35,0-19.06-3.6-26.1-10.79c-7.05-7.19-10.57-15.96-10.57-26.32c0-10.35,3.52-19.12,10.57-26.32
		c7.04-7.19,15.75-10.79,26.1-10.79c10.64,0,19.48,3.6,26.53,10.79C546.44,411.34,549.96,420.11,549.96,430.46z"/>
</g>
</svg>
