<?xml version="1.0" encoding="utf-8"?>
<!-- Generator: Adobe Illustrator 25.3.1, SVG Export Plug-In . SVG Version: 6.00 Build 0)  -->
<svg version="1.1" id="Layer_1" xmlns="http://www.w3.org/2000/svg" xmlns:xlink="http://www.w3.org/1999/xlink" x="0px" y="0px"
	 viewBox="0 0 560 560" style="enable-background:new 0 0 560 560;" xml:space="preserve">
<style type="text/css">
	.st0{fill:#5BCCF6;}
</style>
<g>
	<path class="st0" d="M122.83,296.28l-19.73-16.04l158.08-128.53c12.38-10.07,14.26-28.26,4.19-40.64
		c-10.07-12.38-28.26-14.26-40.64-4.19L39.09,257.83c-6.75,5.49-10.66,13.72-10.66,22.41s3.92,16.93,10.66,22.42l47.3,38.45
		c5.36,4.35,11.8,6.47,18.21,6.47c8.4,0,16.72-3.64,22.43-10.66C137.09,324.54,135.21,306.35,122.83,296.28z"/>
	<path class="st0" d="M520.91,257.83l-53.42-43.44c-12.38-10.06-30.57-8.19-40.64,4.19c-10.07,12.38-8.19,30.57,4.19,40.64
		l25.85,21.02L298.81,408.77c-12.38,10.07-14.26,28.26-4.19,40.64c5.71,7.02,14.03,10.66,22.43,10.66c6.4,0,12.85-2.12,18.21-6.47
		l185.65-150.94c6.75-5.49,10.66-13.72,10.66-22.42S527.66,263.31,520.91,257.83z"/>
	<path class="st0" d="M357.3,102.27c-14.66-6.29-31.65,0.5-37.94,15.16l-123.97,289c-6.29,14.66,0.5,31.65,15.16,37.94
		c3.71,1.59,7.57,2.35,11.37,2.35c11.2,0,21.87-6.56,26.56-17.51l123.97-289C378.75,125.55,371.96,108.56,357.3,102.27z"/>
</g>
</svg>
